<svg xmlns="http://www.w3.org/2000/svg" xmlns:xlink="http://www.w3.org/1999/xlink" viewBox="0 0 682.21 332.49"><defs><linearGradient id="Degradado_sin_nombre_11" x1="135.51" y1="275.88" x2="135.51" y2="52.24" gradientTransform="matrix(1, 0, 0, -1, 0, 334)" gradientUnits="userSpaceOnUse"><stop offset="0" stop-color="#44ccb2"/><stop offset="1" stop-color="#317a6c"/></linearGradient><linearGradient id="Degradado_sin_nombre_11-2" x1="341.71" y1="275.87" x2="341.71" y2="55.52" xlink:href="#Degradado_sin_nombre_11"/><linearGradient id="Degradado_sin_nombre_11-3" x1="537.76" y1="275.88" x2="537.76" y2="52.24" xlink:href="#Degradado_sin_nombre_11"/><radialGradient id="Degradado_sin_nombre_13" cx="10.64" cy="-682.79" r="40.99" gradientTransform="matrix(2.15, 0, 0, -0.34, 318.84, 11.69)" gradientUnits="userSpaceOnUse"><stop offset="0" stop-color="#3ab19b" stop-opacity="0.1"/><stop offset="1" stop-color="#6c3e93" stop-opacity="0"/></radialGradient><radialGradient id="Degradado_sin_nombre_13-2" cx="135.67" cy="-682.79" r="41" gradientTransform="matrix(2.27, 0, 0, -0.34, 229.25, 11.69)" xlink:href="#Degradado_sin_nombre_13"/><radialGradient id="Degradado_sin_nombre_13-3" cx="66.8" cy="-682.79" r="41.03" gradientTransform="matrix(1.66, 0, 0, -0.34, 62.31, 11.69)" xlink:href="#Degradado_sin_nombre_13"/></defs><title>Recurso 3</title><g id="Capa_2" data-name="Capa 2"><g id="Layer_1" data-name="Layer 1"><path d="M228.86,230.3h-35.6v51.6h-41.6V230.3H42.16V206l96.2-143.7h54.9V197h35.6ZM86.46,197h65.2V129.8l1-35.9H152a240.15,240.15,0,0,1-20,36.3Z" style="opacity:0.2;fill:url(#Degradado_sin_nombre_11)"/><path d="M429.46,172.1c0-37.3-7.4-65.4-22.1-84.5S370.66,59,341.66,59s-51,9.5-65.7,28.6-22.1,47.2-22.1,84.5V281.9h45.9V172.1c0-26,.1-45.1,7.5-57.6s20.2-18.6,34.4-18.6,26.9,6.2,34.4,18.6,7.6,31.6,7.6,57.6V281.9h45.9l-.1-109.8Z" style="opacity:0.2;fill:url(#Degradado_sin_nombre_11-2)"/><path d="M596.86,78.4q19.95,16.2,20,43.6,0,16.5-6.9,27.6c-4.6,7.4-10.1,12.9-16.5,16.3s-11.9,5.2-16.6,5.2v1c6,0,12.4,1.6,19.2,4.7s12.6,8.3,17.6,15.5,7.4,16.6,7.4,28.3a51.22,51.22,0,0,1-10.7,32q-10.65,13.95-29.4,21.6t-42.6,7.8c-22.8,0-41.1-4.2-54.7-12.6s-23.4-21.8-29.2-40.4l50.4-21.6c1.1,11.2,4.4,19.3,9.8,24.2s13.2,7.4,23.1,7.4c9.3,0,16.5-2.2,21.8-6.6s7.9-10.6,7.9-18.6c0-8.4-2.5-14.4-7.6-18.1s-13.1-5.5-24.1-5.5h-11.9V155h9.4c10.3,0,17.9-2.1,22.6-6.3s7.1-10.6,7.1-19.2c0-7.8-2.2-13.7-6.6-17.9s-10.6-6.3-18.6-6.3c-18.1,0-28,9.6-29.7,28.7l-48.8-16.5c3.4-18.9,12.4-32.9,27-41.8s32.8-13.4,54.7-13.4Q576.81,62.3,596.86,78.4Z" style="opacity:0.2;fill:url(#Degradado_sin_nombre_11-3)"/><rect x="0.51" y="243.18" width="681.7" height="89.31" style="fill:#fff"/><line x1="427.66" y1="299.3" x2="510.66" y2="299.3" style="fill:none;stroke:#aae5d9;stroke-linecap:round;stroke-miterlimit:10"/><line x1="505.36" y1="267.3" x2="540.76" y2="267.3" style="fill:none;stroke:#aae5d9;stroke-linecap:round;stroke-miterlimit:10"/><line x1="550.76" y1="267.3" x2="572.06" y2="267.3" style="fill:none;stroke:#aae5d9;stroke-linecap:round;stroke-miterlimit:10"/><line x1="135.56" y1="278.3" x2="218.56" y2="278.3" style="fill:none;stroke:#aae5d9;stroke-linecap:round;stroke-miterlimit:10"/><line x1="152.86" y1="286.6" x2="117.46" y2="286.6" style="fill:none;stroke:#aae5d9;stroke-linecap:round;stroke-miterlimit:10"/><line x1="107.46" y1="286.6" x2="86.26" y2="286.6" style="fill:none;stroke:#aae5d9;stroke-linecap:round;stroke-miterlimit:10"/><line x1="505.36" y1="267.3" x2="540.76" y2="267.3" style="fill:none;stroke:#aae5d9;stroke-linecap:round;stroke-miterlimit:10"/><line x1="550.76" y1="267.3" x2="572.06" y2="267.3" style="fill:none;stroke:#aae5d9;stroke-linecap:round;stroke-miterlimit:10"/><rect x="251.76" y="241.9" width="179.8" height="14.4" style="fill:url(#Degradado_sin_nombre_13)"/><rect x="442.46" y="241.9" width="190.6" height="14.4" style="fill:url(#Degradado_sin_nombre_13-2)"/><rect x="103.66" y="241.9" width="139.1" height="14.4" style="fill:url(#Degradado_sin_nombre_13-3)"/><path d="M299.66,241.9V172.1c0-26,.1-45.1,7.5-57.6s20.2-18.6,34.4-18.6,26.9,6.2,34.4,18.6,7.6,31.6,7.6,57.6v69.8Z" style="fill:#fff"/><path d="M299.66,241.9V172.1c0-26,.1-45.1,7.5-57.6s20.2-18.6,34.4-18.6,26.9,6.2,34.4,18.6,7.6,31.6,7.6,57.6v69.8Z" style="fill:none;stroke:#3ab19b;stroke-miterlimit:10"/><rect x="381.56" y="152.7" width="4" height="12" style="fill:#3ab19b"/><rect x="381.56" y="219.3" width="4" height="12" style="fill:#3ab19b"/><line x1="366.76" y1="105.4" x2="366.76" y2="242.2" style="fill:#fff;stroke:#d7f9f1;stroke-miterlimit:10"/><line x1="350.06" y1="97.7" x2="350.06" y2="241.9" style="fill:#fff;stroke:#d7f9f1;stroke-miterlimit:10"/><line x1="333.26" y1="97.7" x2="333.26" y2="241.9" style="fill:#fff;stroke:#d7f9f1;stroke-miterlimit:10"/><line x1="316.46" y1="105.4" x2="316.46" y2="242.2" style="fill:#fff;stroke:#d7f9f1;stroke-miterlimit:10"/><circle cx="341.66" cy="134.6" r="16.8" style="fill:#fff;stroke:#aae5d9;stroke-miterlimit:10"/><circle cx="341.66" cy="134.6" r="13.8" style="fill:#fff;stroke:#aae5d9;stroke-miterlimit:10"/><circle cx="316.46" cy="199.5" r="6" style="fill:#fff;stroke:#aae5d9;stroke-miterlimit:10"/><circle cx="316.46" cy="183.5" r="4" style="fill:#fff;stroke:#aae5d9;stroke-miterlimit:10"/><line x1="316.46" y1="181.9" x2="316.46" y2="185.1" style="fill:none;stroke:#aae5d9;stroke-linecap:round;stroke-miterlimit:10"/><path d="M330.56,202.5h-14a3,3,0,0,1-3-3h0a3,3,0,0,1,3-3h14a3,3,0,0,1,3,3h0A3,3,0,0,1,330.56,202.5Z" style="fill:#fff;stroke:#aae5d9;stroke-miterlimit:10"/><rect x="642.06" y="148.7" width="34.3" height="13.6" style="fill:#fff;stroke:#aae5d9;stroke-linecap:round;stroke-miterlimit:10"/><rect x="624.96" y="162.4" width="34.3" height="13.6" style="fill:#fff;stroke:#aae5d9;stroke-linecap:round;stroke-miterlimit:10"/><rect x="430.06" y="0.5" width="34.3" height="13.6" style="fill:#fff;stroke:#aae5d9;stroke-linecap:round;stroke-miterlimit:10"/><rect x="447.26" y="14.1" width="34.3" height="13.6" style="fill:#fff;stroke:#aae5d9;stroke-linecap:round;stroke-miterlimit:10"/><rect x="235.79" y="38.72" width="34.3" height="13.6" style="fill:#fff;stroke:#aae5d9;stroke-linecap:round;stroke-miterlimit:10"/><rect x="218.55" y="52.32" width="34.3" height="13.6" style="fill:#fff;stroke:#aae5d9;stroke-linecap:round;stroke-miterlimit:10"/><rect x="17.64" y="135.13" width="34.3" height="13.6" style="fill:#fff;stroke:#aae5d9;stroke-linecap:round;stroke-miterlimit:10"/><rect x="0.5" y="148.82" width="34.3" height="13.6" style="fill:#fff;stroke:#aae5d9;stroke-linecap:round;stroke-miterlimit:10"/><rect x="0.5" y="121.54" width="34.3" height="13.6" style="fill:#fff;stroke:#aae5d9;stroke-linecap:round;stroke-miterlimit:10"/><line x1="682.21" y1="242.74" x2="0.26" y2="242.74" style="fill:none;stroke:#aae5d9;stroke-miterlimit:10"/></g></g></svg>